<svg xmlns="http://www.w3.org/2000/svg" viewBox="0 0 64 64"><circle cx="32" cy="32" r="30" fill="#FBBF24"/><circle cx="32" cy="32" r="25.8" fill="#FFFBEB"/><path d="M34.2 32.9 L55.4 33.0 A23.4 23.4 0 0 1 49.3 47.8 Z" fill="#FDE68A" stroke="#FCD34D" stroke-width="0.6" stroke-linejoin="round"/><path d="M32.9 34.2 L47.8 49.3 A23.4 23.4 0 0 1 33.0 55.4 Z" fill="#FDE68A" stroke="#FCD34D" stroke-width="0.6" stroke-linejoin="round"/><path d="M31.1 34.2 L31.0 55.4 A23.4 23.4 0 0 1 16.2 49.3 Z" fill="#FDE68A" stroke="#FCD34D" stroke-width="0.6" stroke-linejoin="round"/><path d="M29.8 32.9 L14.7 47.8 A23.4 23.4 0 0 1 8.6 33.0 Z" fill="#FDE68A" stroke="#FCD34D" stroke-width="0.6" stroke-linejoin="round"/><path d="M29.8 31.1 L8.6 31.0 A23.4 23.4 0 0 1 14.7 16.2 Z" fill="#FDE68A" stroke="#FCD34D" stroke-width="0.6" stroke-linejoin="round"/><path d="M31.1 29.8 L16.2 14.7 A23.4 23.4 0 0 1 31.0 8.6 Z" fill="#FDE68A" stroke="#FCD34D" stroke-width="0.6" stroke-linejoin="round"/><path d="M32.9 29.8 L33.0 8.6 A23.4 23.4 0 0 1 47.8 14.7 Z" fill="#FDE68A" stroke="#FCD34D" stroke-width="0.6" stroke-linejoin="round"/><path d="M34.2 31.1 L49.3 16.2 A23.4 23.4 0 0 1 55.4 31.0 Z" fill="#FDE68A" stroke="#FCD34D" stroke-width="0.6" stroke-linejoin="round"/></svg>
